PathFileType	4	(X/Y/Z)	C:/Users/opensim2020/Desktop/walking_exp_matlab/subject03_walking04_straight_01.trc	
DataRate	CameraRate	NumFrames	NumMarkers	Units	OrigDataRate	OrigDataStartFrame	OrigNumFrames	
100.00	100.00	8	51	mm	100.00	868	265	
Frame#	Time	LFHD			RFHD			LBHD			RBHD			C7			T10			CLAV			STRN			RBAK			LSHO			LUPA			LELB			LFRM			LWRA			LWRB			LFIN			RSHO			RUPA			RELB			RFRM			RWRA			RWRB			RFIN			LASI			RASI			LPSI			RPSI			LTHI			LKNE			LTIB			LANK			LHEE			LTOE			RTHI			RKNE			RTIB			RANK			RHEE			RTOE			*39			*40			*41			*42			*43			*44			*45			*46			*47			*48			*49			*50			
		X1	Y1	Z1	X2	Y2	Z2	X3	Y3	Z3	X4	Y4	Z4	X5	Y5	Z5	X6	Y6	Z6	X7	Y7	Z7	X8	Y8	Z8	X9	Y9	Z9	X10	Y10	Z10	X11	Y11	Z11	X12	Y12	Z12	X13	Y13	Z13	X14	Y14	Z14	X15	Y15	Z15	X16	Y16	Z16	X17	Y17	Z17	X18	Y18	Z18	X19	Y19	Z19	X20	Y20	Z20	X21	Y21	Z21	X22	Y22	Z22	X23	Y23	Z23	X24	Y24	Z24	X25	Y25	Z25	X26	Y26	Z26	X27	Y27	Z27	X28	Y28	Z28	X29	Y29	Z29	X30	Y30	Z30	X31	Y31	Z31	X32	Y32	Z32	X33	Y33	Z33	X34	Y34	Z34	X35	Y35	Z35	X36	Y36	Z36	X37	Y37	Z37	X38	Y38	Z38	X39	Y39	Z39	X40	Y40	Z40	X41	Y41	Z41	X42	Y42	Z42	X43	Y43	Z43	X44	Y44	Z44	X45	Y45	Z45	X46	Y46	Z46	X47	Y47	Z47	X48	Y48	Z48	X49	Y49	Z49	X50	Y50	Z50	X51	Y51	Z51	

133	1.320	-1236.09961	-179.87277	1626.23645	-1105.62280	-209.66290	1625.17126	-1260.22681	-294.99643	1558.81372	-1131.38867	-319.60266	1558.05432	-1197.23389	-315.21579	1408.15637	-1189.66907	-337.49548	1095.13293	-1188.87561	-192.30937	1335.83167	-1195.32764	-142.92630	1171.37085	-1103.07861	-366.26392	1231.71021	-1346.27271	-232.39020	1372.48840	-1419.22290	-209.52075	1181.02576	-1430.17468	-168.95042	1065.76904	-1418.80713	-86.46863	968.17346	-1375.89246	-10.99061	883.62244	-1425.16199	-31.09942	868.52423	-1409.65918	31.23635	816.22162	-1031.24487	-245.81999	1358.34412	-960.65753	-261.55466	1135.74792	-947.66577	-256.45493	1022.47150	-943.37170	-256.76138	885.48926	-977.20673	-238.07677	786.22668	-933.20093	-269.97369	785.98444	-943.97736	-259.28864	711.39478	-1310.66260	-175.05391	929.19330	-1073.58923	-160.94489	938.10150	-1250.91895	-332.83411	957.24506	-1102.09485	-324.18155	966.93109	-1344.64136	-273.13489	631.82892	-1315.69556	-303.71805	454.84698	-1301.65027	-446.96964	310.19479	-1247.35425	-570.96863	144.51518	-1208.17371	-618.66595	145.33302	-1205.59460	-478.90060	25.60751	-1035.03503	-179.23904	643.21198	-1077.66992	-133.85173	469.72775	-1075.32751	-141.72331	279.97733	-1127.72852	-121.78057	65.66884	-1179.79016	-163.64049	32.80852	-1148.69299	22.09535	32.65425	-1205.14453	-282.66721	1667.57813																																	 
134	1.330	-1235.68652	-170.27632	1627.78076	-1105.15479	-199.98221	1626.51392	-1259.80859	-285.27844	1560.29248	-1130.99695	-309.84048	1559.41272	-1196.42273	-305.21985	1409.56787	-1189.50745	-327.45465	1096.80994	-1188.75110	-182.10652	1337.48267	-1195.33472	-132.60823	1173.02039	-1101.67932	-355.35513	1233.62341	-1345.65515	-222.90901	1374.58948	-1418.21045	-201.19646	1182.80823	-1429.29871	-162.19168	1067.14478	-1418.49316	-81.59770	967.62103	-1376.48706	-7.46045	881.04877	-1425.66138	-28.40204	866.73151	-1410.73804	32.66672	812.53174	-1030.87561	-234.51018	1360.48962	-959.96564	-249.19817	1137.97021	-947.02850	-243.61273	1024.78479	-942.47449	-243.42772	887.87146	-976.30573	-224.71400	788.53613	-932.05286	-256.17242	788.30133	-943.20624	-245.40755	713.48602	-1309.78784	-164.36272	930.68719	-1073.01233	-150.90417	940.18524	-1251.01697	-322.12759	958.74377	-1102.43884	-313.55457	968.78870	-1346.11572	-258.87247	631.78381	-1318.79077	-286.36633	454.13757	-1304.12744	-431.90036	312.26804	-1249.51721	-559.99591	150.16217	-1209.88232	-606.93066	154.36107	-1206.17688	-477.20612	25.63124	-1035.08997	-172.23737	644.30688	-1076.60156	-129.35429	470.15952	-1074.92249	-139.43646	280.32761	-1127.63037	-121.69119	65.75828	-1179.37097	-163.91803	32.92168	-1148.67053	22.17598	32.51587																																				 
135	1.340	-1235.30457	-160.54480	1629.00037	-1104.84534	-190.13330	1627.59619	-1259.46973	-275.61057	1561.49707	-1130.63708	-300.07770	1560.44910	-1195.68884	-295.22986	1410.59021	-1189.18811	-317.59714	1098.30933	-1188.64404	-171.98450	1338.81665	-1195.38684	-122.42184	1174.44238	-1100.17676	-344.47995	1235.36877	-1345.00732	-213.49138	1376.32910	-1417.19519	-192.95088	1184.35242	-1428.09412	-155.63020	1068.13721	-1418.32288	-76.91989	966.83960	-1377.27222	-4.15120	878.37073	-1426.22900	-26.01385	864.66888	-1411.87329	33.65501	808.46381	-1030.79822	-223.15152	1362.33557	-959.15778	-236.96475	1139.99121	-946.22076	-230.88327	1026.90527	-941.44690	-229.89160	890.00555	-974.82648	-210.07573	790.93011	-930.81805	-242.10298	790.35931	-942.00421	-231.58055	715.43439	-1308.95093	-154.16661	932.04303	-1072.33521	-141.16885	941.73718	-1250.99683	-311.76721	960.07910	-1102.42114	-303.32233	970.36493	-1347.48560	-244.41356	631.45416	-1321.17932	-268.46671	453.21368	-1306.70911	-415.91528	313.86063	-1252.06079	-547.83264	155.35547	-1212.55432	-594.33350	163.13394	-1208.11829	-474.96924	25.87664	-1034.83081	-165.53180	644.98639	-1075.95056	-124.66273	470.16495	-1074.67078	-136.85107	280.52951	-1127.78003	-121.65232	65.81601	-1179.59436	-163.65907	32.87800	-1148.85974	22.27616	32.33830	-1202.63367	-264.18646	1673.92944																																	 
136	1.350	-1234.97388	-150.92484	1629.87512	-1104.48694	-180.39240	1628.27686	-1259.09692	-265.95798	1562.36328	-1130.29016	-290.41202	1561.15027	-1194.98108	-285.43289	1411.35571	-1188.62622	-307.73108	1099.35352	-1188.62305	-161.95107	1339.85596	-1195.40979	-112.34367	1175.46094	-1098.69617	-333.56772	1236.79456	-1344.39539	-204.19319	1377.63708	-1416.32910	-184.64824	1185.52478	-1427.16968	-149.28914	1068.55750	-1418.32288	-72.32873	965.72467	-1378.18970	-0.92538	875.41034	-1427.15723	-23.68094	862.42615	-1413.08386	34.35401	804.08533	-1030.62012	-211.86937	1363.81873	-958.30963	-224.71347	1141.72021	-945.19415	-218.19768	1028.71594	-940.35303	-216.22539	891.83783	-974.06622	-196.41289	792.63910	-929.58038	-227.70688	792.08020	-940.91339	-217.15376	717.09314	-1308.25500	-144.10785	933.15656	-1071.81555	-131.46457	942.73163	-1250.78784	-301.91980	961.17749	-1102.24231	-293.21118	971.56738	-1348.63696	-229.93939	630.84204	-1323.64807	-250.28920	452.11465	-1308.84338	-399.05472	315.22195	-1254.74487	-534.44226	160.50621	-1215.54639	-580.72308	171.89034	-1210.66968	-470.37579	27.68549	-1034.54150	-159.18199	645.26831	-1075.59387	-119.85748	469.85181	-1074.53540	-134.16260	280.59634	-1127.99841	-121.50149	65.80419	-1179.54529	-163.90005	32.93364	-1149.11414	22.43731	32.17187	-1204.59119	-252.72606	1671.29749																																	 
137	1.360	-1234.62598	-141.28554	1630.50635	-1104.15027	-170.70564	1628.79102	-1258.80566	-256.31564	1562.99866	-1129.95276	-280.65930	1561.59485	-1194.32690	-275.71207	1411.84912	-1187.85669	-298.10788	1100.23059	-1188.62769	-151.99254	1340.52881	-1195.49976	-102.43938	1176.15979	-1097.18860	-322.84482	1237.87292	-1343.90173	-194.94397	1378.54846	-1415.60229	-176.35835	1186.27710	-1426.43970	-143.05185	1068.64771	-1418.38696	-67.79791	964.18817	-1379.17554	2.15315	872.02496	-1427.95081	-21.56973	859.71582	-1414.35059	34.74516	799.32190	-1030.44299	-200.68571	1364.98401	-957.34583	-212.46680	1143.03955	-943.99786	-205.48369	1030.15784	-939.16296	-202.37344	893.29919	-973.17004	-182.29143	794.14111	-928.33997	-212.98225	793.40869	-939.81110	-202.14684	718.34161	-1307.78491	-134.57700	933.97729	-1071.38916	-121.96801	943.02795	-1250.50684	-292.37921	961.74426	-1101.87292	-283.35919	972.35132	-1349.56128	-215.54593	630.00787	-1325.38818	-231.67139	450.86121	-1310.93628	-381.57983	316.42477	-1257.51697	-521.10559	166.00511	-1218.78552	-567.15833	179.33832	-1213.73962	-461.70566	31.23842	-1034.10950	-153.17833	645.49768	-1075.19482	-115.09766	469.42029	-1074.42993	-131.34064	280.67368	-1128.22351	-121.29324	65.81015	-1179.81714	-163.55815	32.88265	-1149.29785	22.67130	31.97420	-1203.12512	-244.69775	1676.61230																																	 
138	1.370	-1234.40503	-131.66129	1630.98059	-1103.82971	-160.90858	1629.13245	-1258.51514	-246.68929	1563.44690	-1129.65210	-270.91522	1561.85388	-1193.66345	-266.14474	1412.19702	-1186.96265	-288.35370	1100.55200	-1188.67517	-142.16895	1341.00562	-1195.66333	-92.64621	1176.59473	-1095.78406	-312.18301	1238.54431	-1343.49365	-185.81169	1379.01526	-1415.04578	-168.10378	1186.52539	-1425.87036	-136.75793	1068.33704	-1418.75354	-63.27623	962.14478	-1380.27527	4.99229	868.13513	-1428.78333	-19.71035	856.72009	-1415.66003	34.86497	794.20313	-1030.49048	-189.51405	1365.67810	-956.28302	-200.22983	1143.96313	-942.70422	-192.73273	1031.14978	-938.08313	-188.22978	894.38812	-972.02905	-167.47873	795.38165	-927.03308	-197.99649	794.34918	-938.79462	-186.64427	719.31842	-1307.19824	-125.57954	934.50537	-1071.06140	-112.55164	942.75610	-1250.09253	-283.26703	961.81909	-1101.29565	-273.91647	972.72656	-1350.41028	-201.41409	629.07434	-1326.82776	-212.68596	449.51395	-1313.33752	-363.53259	317.97946	-1260.18164	-507.40982	171.65422	-1221.43396	-553.45886	185.29585	-1218.18689	-449.50278	35.32621	-1033.13269	-146.95694	645.67993	-1074.67358	-110.43962	469.03000	-1074.24451	-128.59036	280.68921	-1128.59949	-120.78854	65.79030	-1179.90649	-163.47626	32.97037	-1149.41064	22.90926	31.78148	-1203.68872	-233.54189	1672.20850																																	 
139	1.380	-1234.17639	-122.01077	1631.42273	-1103.53064	-151.21767	1629.42725	-1258.26306	-237.06021	1563.84631	-1129.37744	-261.17572	1562.13220	-1193.12305	-256.49341	1412.48230	-1186.04102	-278.74377	1100.74182	-1188.69812	-132.48170	1341.34021	-1195.99963	-83.06930	1176.72900	-1094.43335	-301.83521	1238.83386	-1343.35742	-176.75081	1379.14844	-1414.60242	-159.97731	1186.34436	-1425.25500	-130.29742	1067.55859	-1419.01599	-58.82755	959.87347	-1381.44067	7.70481	863.96454	-1429.72498	-17.82527	853.34338	-1416.94019	34.72326	788.80347	-1030.35486	-178.53571	1366.04773	-955.22406	-187.93636	1144.47925	-941.34015	-179.86514	1031.76685	-936.64368	-174.06552	895.01434	-970.93744	-152.45366	796.26019	-925.71191	-182.50464	794.90686	-937.66718	-170.81647	719.99542	-1307.39807	-116.44917	934.65295	-1070.76416	-103.23989	942.10156	-1249.69653	-274.45905	961.52899	-1100.81384	-264.64777	972.78668	-1351.18408	-187.43538	628.31274	-1328.02222	-193.22687	448.33307	-1315.15002	-345.32672	319.59341	-1262.89478	-492.58060	176.46132	-1223.76599	-538.95660	189.94588	-1223.26782	-434.95325	39.39807	-1031.91064	-140.38644	645.80530	-1074.03369	-105.83205	468.72769	-1074.08423	-125.94103	280.68887	-1128.82520	-120.59319	65.75989	-1179.91699	-163.45618	32.99600	-1149.48755	23.09676	31.62642	-1215.29517	-220.81053	1675.99463																																	 
140	1.390	-1234.11377	-112.39171	1631.87659	-1103.36279	-141.49684	1629.76672	-1257.98022	-227.45987	1564.21765	-1129.07373	-251.41101	1562.38403	-1192.56177	-246.93327	1412.85620	-1185.14148	-269.22351	1100.82019	-1188.74951	-122.93061	1341.61475	-1196.03699	-73.71136	1176.83447	-1093.19141	-291.70859	1238.89478	-1343.39075	-167.81071	1378.98853	-1414.27063	-152.01450	1185.73462	-1424.93225	-123.63076	1066.54456	-1419.39539	-54.29111	957.08838	-1382.61365	10.09721	859.34064	-1430.68713	-16.09288	849.64514	-1418.27588	34.40575	783.27271	-1030.23389	-167.79672	1366.07898	-954.20392	-175.54118	1144.61829	-940.01074	-166.79250	1032.01135	-935.60565	-159.53523	895.33759	-969.86493	-137.22948	796.83667	-924.48615	-167.05087	795.16638	-936.53552	-154.45142	720.44464	-1307.46887	-107.70406	934.62634	-1070.54578	-93.82392	941.44495	-1249.40527	-265.83200	960.80829	-1100.31409	-255.68048	972.72052	-1351.90320	-173.34645	627.89008	-1329.50476	-173.60193	447.69205	-1316.90161	-327.02136	321.58719	-1265.63428	-476.41406	180.52455	-1226.21704	-523.25891	193.46309	-1228.20032	-418.24149	43.60100	-1031.16150	-134.53506	646.01477	-1073.48608	-101.27258	468.59180	-1073.85962	-123.10773	280.73618	-1128.98914	-120.35011	65.76483	-1180.06555	-163.56650	33.29187	-1149.54492	23.27777	31.48486	-1203.07214	-214.36592	1672.94666																																	 
